<svg width="23" height="23" viewBox="0 0 23 23" fill="none" xmlns="http://www.w3.org/2000/svg">
<g clip-path="url(#clip0_195_225)">
<path d="M14.5218 11.4999L16.9516 13.9294C17.1243 14.1017 17.2212 14.3354 17.2212 14.5797C17.2212 14.8236 17.1243 15.0577 16.9516 15.23L15.2297 16.9515C14.8708 17.3104 14.2881 17.3104 13.9292 16.9515L11.5 14.522L9.0701 16.9515C8.71127 17.3104 8.12928 17.3104 7.76965 16.9515L6.04841 15.23C5.8757 15.0576 5.77885 14.8236 5.77885 14.5797C5.77885 14.3354 5.8757 14.1017 6.04841 13.9294L8.4779 11.4999L6.04804 9.07047C5.68874 8.71075 5.68874 8.12876 6.04804 7.7695L7.76928 6.04789C8.12891 5.68906 8.71089 5.68906 9.06977 6.04789L11.5001 8.4778L13.9296 6.04789C14.2885 5.68906 14.8713 5.68906 15.2301 6.04789L16.9521 7.7695C17.3106 8.12876 17.3106 8.71075 16.9521 9.07047L14.5218 11.4999Z" fill="white"/>
<path d="M11.4999 23C5.15896 23 -0.00012207 17.8408 -0.00012207 11.4996C-0.00012207 5.15908 5.15896 0 11.4999 0C17.8408 0 22.9999 5.15908 22.9999 11.4996C22.9999 17.8408 17.8408 23 11.4999 23ZM11.4999 2.47805C6.52544 2.47805 2.47802 6.52551 2.47802 11.4996C2.47802 16.4747 6.52544 20.5218 11.4999 20.5218C16.4743 20.5218 20.5217 16.4747 20.5217 11.4996C20.5217 6.52556 16.4743 2.47805 11.4999 2.47805Z" fill="white"/>
</g>
<defs>
<clipPath id="clip0_195_225">
<rect width="23" height="23" fill="white" transform="matrix(1 0 0 -1 -0.00012207 23)"/>
</clipPath>
</defs>
</svg>
