<svg width="28" height="28" viewBox="0 0 28 28" fill="none" xmlns="http://www.w3.org/2000/svg">
<path d="M16.4104 14.385L15.3121 13.2869C15.432 13.0403 15.5369 12.7871 15.6265 12.5279H17.1796C17.6899 12.5279 18.1037 12.1142 18.1037 11.6037V8.89453C18.1037 8.38421 17.69 7.97034 17.1796 7.97034H15.6265C15.5368 7.71127 15.4319 7.45804 15.3121 7.21151L16.4104 6.11329C16.7712 5.7524 16.7712 5.16723 16.4104 4.80634L14.4947 2.89065C14.1337 2.52986 13.5487 2.52986 13.1877 2.89065L12.0895 3.98887C11.843 3.86914 11.5898 3.76412 11.3307 3.67456V2.12145C11.3307 1.61114 10.9169 1.19727 10.4065 1.19727H7.69727C7.18695 1.19727 6.77308 1.61104 6.77308 2.12145V3.67456C6.51401 3.76421 6.26078 3.86905 6.01425 3.98887L4.91612 2.89065C4.74284 2.71737 4.50772 2.61999 4.2626 2.61999C4.01748 2.61999 3.78245 2.71737 3.60908 2.89065L1.69329 4.80634C1.52001 4.97962 1.42263 5.21475 1.42263 5.45986C1.42263 5.70498 1.52001 5.94001 1.69329 6.11339L2.79152 7.21161C2.67178 7.45805 2.56676 7.71127 2.4772 7.97044H0.924189C0.413778 7.97044 0 8.38421 0 8.89453V11.6038C0 12.1142 0.413778 12.528 0.924189 12.528H2.4772C2.56695 12.7871 2.67178 13.0403 2.79161 13.2869L1.69339 14.3851C1.3325 14.746 1.3325 15.3311 1.69339 15.692L3.60908 17.6077C3.97006 17.9684 4.55504 17.9686 4.91603 17.6077L6.01425 16.5095C6.26069 16.6293 6.51401 16.7343 6.77308 16.8239V18.377C6.77308 18.8873 7.18686 19.3012 7.69727 19.3012H10.4066C10.9169 19.3012 11.3308 18.8874 11.3308 18.377V16.8239C11.5897 16.7342 11.8431 16.6293 12.0896 16.5095L13.1878 17.6077C13.5488 17.9685 14.1338 17.9685 14.4948 17.6077L16.4104 15.692C16.7713 15.331 16.7713 14.7459 16.4104 14.385ZM14.0309 11.3971C13.9037 11.9513 13.6861 12.4765 13.3842 12.9581C13.1554 13.3231 13.2092 13.7978 13.5138 14.1023L14.45 15.0385L13.8412 15.6473L12.905 14.7111C12.6003 14.4065 12.1257 14.3529 11.7608 14.5815C11.279 14.8834 10.7539 15.101 10.1999 15.2281C9.78001 15.3244 9.48248 15.6981 9.48248 16.1289V17.4528H8.62155V16.1289C8.62155 15.6981 8.32401 15.3245 7.90411 15.2281C7.35014 15.101 6.82502 14.8834 6.34327 14.5815C5.97861 14.353 5.50374 14.4064 5.19904 14.7111L4.26279 15.6473L3.65405 15.0385L4.59021 14.1023C4.89481 13.7977 4.94855 13.3231 4.71984 12.9581C4.41797 12.4765 4.20038 11.9513 4.0731 11.3971C3.97675 10.9773 3.60314 10.6797 3.17239 10.6797H1.84828V9.81881H3.17211C3.60276 9.81881 3.97638 9.52128 4.07282 9.10156C4.20019 8.54722 4.41768 8.0221 4.71956 7.54063C4.94846 7.17569 4.89463 6.70091 4.59002 6.39631L3.65376 5.46005L4.2626 4.85131L5.19876 5.78757C5.50337 6.09227 5.97824 6.14572 6.34308 5.9171C6.82465 5.61523 7.34976 5.39774 7.90382 5.27056C8.32373 5.17421 8.62127 4.8005 8.62127 4.36975V3.04564H9.48219V4.36956C9.48219 4.80031 9.77973 5.17392 10.1996 5.27037C10.7538 5.39755 11.2788 5.61504 11.7604 5.91691C12.1253 6.14572 12.6002 6.09217 12.9047 5.78738L13.841 4.85112L14.4497 5.45986L13.5134 6.39612C13.2088 6.70082 13.1551 7.1755 13.3839 7.54044C13.6858 8.02191 13.9033 8.54712 14.0306 9.10137C14.127 9.52109 14.5007 9.81862 14.9314 9.81862H16.2552V10.6796H14.9314C14.5008 10.6796 14.1273 10.9772 14.0309 11.3971Z" fill="#20295C"/>
<path d="M9.05178 6.69824C7.09357 6.69824 5.50049 8.29132 5.50049 10.2495C5.50049 12.2077 7.09357 13.8008 9.05178 13.8008C11.01 13.8008 12.6031 12.2077 12.6031 10.2495C12.6031 8.29132 11.0101 6.69824 9.05178 6.69824ZM9.05178 11.9525C8.11269 11.9525 7.34877 11.1886 7.34877 10.2495C7.34877 9.31044 8.11279 8.54653 9.05178 8.54653C9.99077 8.54653 10.7548 9.31044 10.7548 10.2495C10.7548 11.1886 9.99086 11.9525 9.05178 11.9525Z" fill="#20295C"/>
<path d="M27.3946 20.8433C27.7961 20.7692 28.0616 20.3837 27.9875 19.9822L27.6388 18.0917C27.6032 17.8988 27.4925 17.7281 27.3311 17.6169C27.1696 17.5058 26.9704 17.4633 26.7777 17.4988L25.7519 17.6879C25.6725 17.5514 25.5864 17.4188 25.4943 17.2903L26.0857 16.4314C26.1968 16.2698 26.2393 16.0708 26.2038 15.878C26.1683 15.6851 26.0575 15.5144 25.896 15.4032L24.3125 14.313C23.9765 14.0816 23.516 14.1662 23.2844 14.5026L22.693 15.3617C22.5401 15.3213 22.3856 15.2884 22.2297 15.2628L22.0405 14.2372C21.9664 13.8357 21.5804 13.5699 21.1794 13.6443L19.2888 13.993C19.096 14.0286 18.9252 14.1394 18.8141 14.3008C18.7029 14.4624 18.6604 14.6614 18.6959 14.8542L18.8851 15.8799C18.7485 15.9595 18.6159 16.0454 18.4875 16.1375L17.6285 15.5461C17.467 15.435 17.2679 15.3927 17.0751 15.428C16.8823 15.4636 16.7115 15.5743 16.6004 15.7358L15.5102 17.3193C15.3989 17.4808 15.3565 17.6798 15.392 17.8726C15.4276 18.0655 15.5383 18.2363 15.6998 18.3475L16.5588 18.9388C16.5184 19.0917 16.4855 19.2461 16.46 19.4021L15.4343 19.5913C15.2414 19.6269 15.0706 19.7377 14.9595 19.8991C14.8482 20.0607 14.8058 20.2597 14.8414 20.4525L15.1902 22.343C15.2643 22.7445 15.6497 23.0104 16.0513 22.9359L17.077 22.7467C17.1565 22.8832 17.2426 23.0159 17.3347 23.1443L16.7433 24.0032C16.6321 24.1648 16.5896 24.3637 16.6252 24.5566C16.6607 24.7495 16.7715 24.9202 16.933 25.0314L18.5164 26.1216C18.8524 26.353 19.3131 26.2683 19.5445 25.932L20.1359 25.073C20.2887 25.1133 20.4433 25.1462 20.5993 25.1718L20.7885 26.1975C20.8542 26.5536 21.165 26.8028 21.5147 26.8028C21.5592 26.8028 21.6044 26.7988 21.6496 26.7905L23.5401 26.4417C23.733 26.4062 23.9037 26.2954 24.0149 26.134C24.1261 25.9724 24.1686 25.7734 24.133 25.5806L23.9438 24.5549C24.0804 24.4753 24.2131 24.3893 24.3415 24.2972L25.2003 24.8886C25.3619 24.9999 25.5607 25.0424 25.7537 25.0068C25.9466 24.9712 26.1174 24.8604 26.2285 24.6989L27.3187 23.1155C27.5503 22.7792 27.4654 22.3189 27.1291 22.0874L26.2702 21.4959C26.3105 21.3431 26.3434 21.1886 26.369 21.0326L27.3946 20.8433ZM25.5576 19.6787C25.2186 19.7412 24.9678 20.0297 24.9531 20.374C24.9362 20.7676 24.854 21.1528 24.7088 21.5192C24.5818 21.8395 24.6929 22.2051 24.9768 22.4006L25.6817 22.886L25.43 23.2516L24.7252 22.7663C24.4411 22.5708 24.06 22.5974 23.8062 22.8304C23.5157 23.0967 23.1851 23.311 22.8234 23.4673C22.507 23.604 22.3271 23.9412 22.3896 24.2801L22.5449 25.122L22.1084 25.2025L21.9532 24.3607C21.8907 24.0218 21.6023 23.771 21.258 23.7562C20.8641 23.7391 20.4788 23.6569 20.1125 23.5118C20.0237 23.4767 19.9316 23.4598 19.8404 23.4598C19.6028 23.4598 19.3725 23.5748 19.2312 23.7798L18.7459 24.4847L18.3803 24.233L18.8656 23.5282C19.0611 23.2444 19.0345 22.8632 18.8015 22.6092C18.5352 22.3188 18.3209 21.9881 18.1645 21.6263C18.0277 21.31 17.6897 21.1299 17.3517 21.1926L16.51 21.3479L16.4294 20.9115L17.2712 20.7562C17.6103 20.6937 17.861 20.4052 17.8757 20.0609C17.8927 19.6673 17.9749 19.2821 18.1201 18.9156C18.2471 18.5952 18.1358 18.2297 17.852 18.0342L17.1471 17.549L17.3988 17.1833L18.1037 17.6687C18.3877 17.8643 18.7687 17.8375 19.0227 17.6046C19.3132 17.3382 19.6438 17.124 20.0056 16.9675C20.3218 16.8308 20.5018 16.4936 20.4393 16.1548L20.284 15.313L20.7204 15.2325L20.8757 16.0743C20.9382 16.4133 21.2267 16.6641 21.571 16.6788C21.9646 16.6958 22.3498 16.778 22.7162 16.9231C23.0368 17.0502 23.4022 16.9389 23.5975 16.6551L24.083 15.9501L24.4486 16.2018L23.9632 16.9067C23.7678 17.1907 23.7944 17.5719 24.0273 17.8258C24.2937 18.1162 24.508 18.4467 24.6643 18.8085C24.8009 19.1248 25.1385 19.3049 25.477 19.2423L26.3189 19.0871L26.3994 19.5235L25.5576 19.6787Z" fill="#20295C"/>
<path d="M22.8909 18.073C22.3182 17.6787 21.6259 17.5311 20.9422 17.6572C20.2583 17.7833 19.6644 18.1683 19.2701 18.7411C18.4559 19.9235 18.7556 21.5478 19.938 22.3619C20.3879 22.6717 20.9018 22.8202 21.4106 22.8202C22.2392 22.8202 23.0546 22.4264 23.559 21.6939C24.3731 20.5115 24.0733 18.8871 22.8909 18.073ZM22.3411 20.8554C21.9894 21.3662 21.2875 21.4957 20.7767 21.1441C20.2658 20.7923 20.1363 20.0904 20.488 19.5796C20.4881 19.5795 20.4881 19.5795 20.4881 19.5795C20.6584 19.3321 20.915 19.1658 21.2105 19.1113C21.2793 19.0986 21.3484 19.0923 21.4169 19.0923C21.6425 19.0923 21.8627 19.1603 22.0524 19.291C22.5633 19.6427 22.6929 20.3445 22.3411 20.8554Z" fill="#20295C"/>
</svg>
