<svg width="19" height="23" viewBox="0 0 19 23" fill="none" xmlns="http://www.w3.org/2000/svg">
<path d="M2.375 5.03125C2.375 3.84039 3.17249 2.875 4.15625 2.875H14.8438C15.8275 2.875 16.625 3.84039 16.625 5.03125V11.5209C16.2583 11.2367 15.8599 11.0072 15.4375 10.8421V5.03125C15.4375 4.6343 15.1717 4.3125 14.8438 4.3125H4.15625C3.82833 4.3125 3.5625 4.6343 3.5625 5.03125V17.9688C3.5625 18.3657 3.82833 18.6875 4.15625 18.6875H8.95652C9.09293 19.1988 9.28253 19.6811 9.51726 20.125H4.15625C3.17249 20.125 2.375 19.1596 2.375 17.9688V5.03125Z" fill="white"/>
<path d="M8.53432 7.39801C8.7662 7.6787 8.7662 8.13379 8.53432 8.41448L6.95101 10.3311C6.71914 10.6118 6.34319 10.6118 6.11132 10.3311L5.31966 9.37281C5.08778 9.09213 5.08778 8.63703 5.31966 8.35635C5.55153 8.07566 5.92747 8.07566 6.15934 8.35635L6.53117 8.80645L7.69466 7.39801C7.92656 7.11733 8.30244 7.11733 8.53432 7.39801Z" fill="white"/>
<path d="M8.53432 12.669C8.7662 12.9497 8.7662 13.4047 8.53432 13.6854L6.95101 15.6021C6.71914 15.8828 6.34319 15.8828 6.11132 15.6021L5.31966 14.6438C5.08778 14.3631 5.08778 13.908 5.31966 13.6274C5.55153 13.3467 5.92747 13.3467 6.15934 13.6274L6.53117 14.0774L7.69466 12.669C7.92656 12.3883 8.30244 12.3883 8.53432 12.669Z" fill="white"/>
<path d="M13.8542 11.5C16.2589 11.5 18.2083 13.8598 18.2083 16.7708C18.2083 19.6819 16.2589 22.0417 13.8542 22.0417C11.4494 22.0417 9.5 19.6819 9.5 16.7708C9.5 13.8598 11.4494 11.5 13.8542 11.5ZM14.2509 19.6492L14.2505 17.25H16.2315C16.4502 17.25 16.6274 17.0355 16.6274 16.7708C16.6274 16.5062 16.4502 16.2917 16.2315 16.2917H14.2504L14.25 13.8952C14.25 13.6305 14.0727 13.416 13.8542 13.416C13.6356 13.416 13.4583 13.6305 13.4583 13.8952L13.4587 16.2917H11.4761C11.2575 16.2917 11.0802 16.5062 11.0802 16.7708C11.0802 17.0355 11.2575 17.25 11.4761 17.25H13.4588L13.4592 19.6492C13.4592 19.9139 13.6365 20.1284 13.855 20.1284C14.0737 20.1284 14.2509 19.9139 14.2509 19.6492Z" fill="white"/>
<path d="M10.4895 8.146C10.1616 8.146 9.89575 8.46779 9.89575 8.86475C9.89575 9.2617 10.1616 9.5835 10.4895 9.5835H13.2603C13.5882 9.5835 13.8541 9.2617 13.8541 8.86475C13.8541 8.46779 13.5882 8.146 13.2603 8.146H10.4895Z" fill="white"/>
</svg>
