<svg width="22" height="22" viewBox="0 0 22 22" fill="none" xmlns="http://www.w3.org/2000/svg">
<g clip-path="url(#clip0_708_14)">
<path d="M10.45 8.15985V11.086C11.5715 11.3395 12.5684 11.7563 13.6125 12.0442V9.11376C12.4953 8.86454 11.4898 8.44774 10.45 8.15985ZM20.0449 2.87469C18.5711 3.5579 16.7578 4.2454 15.0176 4.2454C12.7188 4.2454 10.8152 2.75009 7.91914 2.75009C6.84492 2.75009 5.88672 2.93915 4.99727 3.26571C5.11758 2.95204 5.17344 2.61259 5.15195 2.25165C5.07461 1.03133 4.07344 0.0516468 2.84883 8.43077e-05C1.47383 -0.0557751 0.34375 1.04423 0.34375 2.40633C0.34375 3.22274 0.751953 3.94462 1.375 4.3786V20.9688C1.375 21.5403 1.83477 22.0001 2.40625 22.0001H3.09375C3.66523 22.0001 4.125 21.5403 4.125 20.9688V16.9126C5.34102 16.3927 6.85781 15.963 9.04062 15.963C11.3438 15.963 13.243 17.4583 16.1391 17.4583C18.2102 17.4583 19.8645 16.7579 21.4027 15.7009C21.7766 15.4431 21.9957 15.022 21.9957 14.5665V4.12079C22 3.11962 20.9559 2.4536 20.0449 2.87469ZM7.2875 13.9864C6.17891 14.1024 5.13906 14.3388 4.125 14.6997V11.6704C5.25078 11.2708 6.16602 11.0259 7.2875 10.9227V13.9864ZM19.9375 8.20712C18.9234 8.62821 17.948 9.04501 16.775 9.23407V12.2892C17.8406 12.1431 18.9836 11.7821 19.9375 11.172V14.2013C18.859 14.8931 17.8535 15.2626 16.775 15.3657V12.2892C15.6148 12.4481 14.7168 12.3536 13.6125 12.0485V14.9446C12.5855 14.6267 11.5801 14.227 10.45 14.0294V11.086C9.60352 10.897 8.69688 10.7938 7.2875 10.9227V7.91493C6.325 8.04813 5.37109 8.35321 4.125 8.81298V5.78368C5.55156 5.25946 6.27773 4.9329 7.2875 4.83837V7.91493C8.44766 7.75595 9.36719 7.85907 10.45 8.15985V5.26376C11.4684 5.58173 12.4781 5.98134 13.6125 6.17899V9.11806C14.6309 9.34579 15.6578 9.41454 16.775 9.23407V6.14462C17.9352 5.93837 19.0223 5.56024 19.9375 5.17782V8.20712Z" fill="white"/>
</g>
<defs>
<clipPath id="clip0_708_14">
<rect width="22" height="22" fill="white"/>
</clipPath>
</defs>
</svg>
