<svg width="180" height="180" viewBox="0 0 180 180" fill="none" xmlns="http://www.w3.org/2000/svg">
<path d="M156.96 19.8818C159.703 20.1846 162.453 20.4401 165.189 20.7994C174.067 21.969 178.4 26.857 178.83 35.8608C179.613 52.2597 178.758 68.6215 178.153 85.0031C177.744 96.0557 178.271 107.141 178.214 118.21C178.178 124.846 178.177 131.516 177.538 138.11C176.171 152.187 168.11 159.515 153.925 159.975C149.274 160.126 144.611 159.961 139.954 159.94C127.761 159.883 115.569 159.824 103.376 159.764C83.8624 159.646 64.348 159.578 44.8358 159.314C41.0693 159.181 37.3232 158.699 33.6457 157.873C28.0149 156.728 23.9946 153.094 20.9075 148.476C17.6148 143.55 15.6283 137.983 14.1677 132.304C10.9202 119.679 7.82017 107.016 4.86753 94.3163C3.40959 88.0785 2.18252 81.7722 1.17079 75.4454C0.133105 68.9211 3.001 65.0278 9.50725 63.7984C13.3032 63.0837 17.1601 62.674 21.1513 62.1035C21.2648 61.5051 21.39 60.8765 21.5028 60.2456C22.1851 56.4353 24.3403 53.5877 27.9384 52.4337C32.3296 50.951 36.8466 49.8729 41.4335 49.2128C61.6267 46.6436 81.9388 47.1772 102.229 47.3143C103.225 47.3214 104.222 47.2963 105.216 47.2496C105.41 47.2405 105.595 47.0612 105.858 46.9215C105.858 44.4465 105.8 41.9288 105.874 39.4149C105.955 36.6508 106.03 33.8763 106.333 31.131C107.006 25.0368 109.317 22.4066 115.492 21.6268C121.308 20.8926 127.2 20.7443 133.063 20.3863C136.59 20.1706 140.122 20.0469 143.652 19.8818H156.96ZM10.2674 71.7879C10.3446 73.449 10.5047 75.1056 10.7473 76.7506C13.778 91.2253 16.7503 105.714 19.9567 120.149C21.8535 129.02 25.16 137.529 29.7498 145.35C31.8122 148.813 34.756 150.557 38.7115 150.613C42.7974 150.672 46.8878 150.623 50.9762 150.618C71.7066 150.594 92.4368 150.573 113.167 150.553C121.591 150.553 130.015 150.651 138.439 150.71C144.204 150.749 149.968 150.84 155.732 150.823C158.527 150.888 161.266 150.03 163.527 148.384C166.608 146.077 167.134 143.506 165.3 140.122C164.646 138.968 164.054 137.781 163.524 136.566C158.466 124.315 153.224 112.134 148.478 99.7646C145.684 92.3072 142.032 85.2006 137.597 78.5896C134.018 73.3316 129.267 69.7105 122.818 68.8392C119.097 68.2513 115.34 67.9317 111.575 67.8823C100.823 67.9882 90.0742 68.3599 79.3244 68.6374C60.4853 69.1227 41.6436 69.5409 22.8103 70.1647C18.7705 70.2986 14.7566 71.1856 10.2674 71.7879ZM167.659 122.202L168.317 122.173C168.317 120.853 168.391 119.529 168.306 118.215C167.194 100.834 167.86 83.4767 168.596 66.0979C169.002 56.4924 168.498 46.8419 168.227 37.2168C168.105 32.8543 167.458 32.393 163.104 31.9908C161.779 31.8686 160.449 31.7312 159.122 31.7312C146.483 31.7412 133.844 31.7729 121.206 31.8271C119.681 31.8349 118.158 32.1002 116.594 32.2497C116.594 36.1197 116.554 39.7431 116.609 43.3649C116.643 45.5741 116.966 47.7893 116.907 49.9927C116.803 53.8725 115.415 55.6186 111.6 56.4809C109.14 57.0954 106.619 57.4318 104.084 57.4841C92.1113 57.4334 80.1325 56.8991 68.1687 57.1401C58.2141 57.3429 48.2692 58.2973 38.3353 59.1186C35.7087 59.3357 32.9096 59.6554 30.3582 61.9855C30.8961 62.1011 31.4409 62.1817 31.9893 62.2266C47.6167 61.9377 63.244 61.6391 78.8711 61.3306C92.0555 61.0493 105.239 60.491 118.424 60.4442C128.434 60.4085 137.272 63.9093 143.452 72.0106C147.577 77.3452 151.15 83.085 154.118 89.1428C158.225 97.6912 161.451 106.663 165.036 115.459C165.946 117.695 166.787 119.954 167.659 122.202Z" fill="#20295C"/>
</svg>
