<svg width="24" height="24" viewBox="0 0 24 24" fill="none" xmlns="http://www.w3.org/2000/svg">
<path d="M21.1315 2.53578C21.9965 3.03519 22.2951 4.13396 21.7957 4.99897L17.9605 11.6417L21.0506 13.4257C21.9156 13.9251 22.2093 15.0211 21.7099 15.8861L20.6616 17.7017L19.1559 16.8324C18.5593 17.6977 17.789 18.8062 17.0929 19.7352C16.5702 20.4329 16.3697 20.9762 15.7634 21.4016C15.4603 21.6143 15.0519 21.7204 14.6556 21.7068C14.2593 21.6932 13.8526 21.5936 13.3383 21.4317C13.3103 21.4241 13.2828 21.4148 13.2559 21.4038L4.42858 17.4096C3.87662 17.16 3.43402 16.9773 3.09846 16.8384C2.76291 16.6995 2.59162 16.6612 2.32346 16.4763C2.25642 16.43 2.16246 16.3888 2.04928 16.1671C1.99269 16.0562 1.93762 15.8729 1.97392 15.684C2.0102 15.4951 2.12662 15.3461 2.21539 15.2658C2.39292 15.1051 2.49004 15.0964 2.5679 15.0756C2.64575 15.0549 2.70407 15.0472 2.76609 15.0392C3.01416 15.0071 3.31272 15.0023 3.76497 14.9795L6.04532 14.8593C6.58184 14.8322 7.34561 14.1925 7.75573 13.5899L9.38379 11.1905L8.42429 10.6365L9.47256 8.82084C9.97197 7.95584 11.0728 7.66503 11.9378 8.16444L14.836 9.8377L18.6712 3.19502C19.1706 2.33001 20.2665 2.03636 21.1315 2.53577L21.1315 2.53578ZM17.8963 16.1052L10.6483 11.9206L8.95648 14.4078C8.39796 15.2285 7.46391 16.2442 6.11848 16.3121L5.59756 16.3393L13.7729 20.0425C13.7789 20.0444 13.7797 20.0414 13.7856 20.0432C14.2322 20.1828 14.5432 20.2482 14.7072 20.2538C14.8733 20.2595 14.8698 20.2461 14.9237 20.2083C15.0316 20.1326 15.34 19.6512 15.9283 18.866C16.5621 18.0201 17.3036 16.9624 17.8962 16.1051L17.8963 16.1052Z" fill="white"/>
</svg>
