<svg width="24" height="24" viewBox="0 0 24 24" fill="none" xmlns="http://www.w3.org/2000/svg">
<g clip-path="url(#clip0_195_185)">
<path d="M9.52818 14.3909C9.65908 14.5218 9.83054 14.5871 10.002 14.5871C10.1736 14.5871 10.345 14.5217 10.4759 14.3909L17.5559 7.31098C17.8176 7.04921 17.8176 6.62491 17.5559 6.36326C17.2942 6.10157 16.8698 6.10157 16.6081 6.36326L9.52818 13.4431C9.26649 13.7049 9.26649 14.1291 9.52818 14.3909Z" fill="white"/>
<path d="M23.6135 4.40962C23.3546 3.63491 22.7815 2.78901 21.9556 1.96335C21.1234 1.13096 19.856 0.138672 18.5449 0.138672C17.9568 0.138672 17.4149 0.345473 16.9737 0.737408C16.9506 0.755059 16.9287 0.774334 16.908 0.795037L14.3655 3.33741H1.08275C0.712642 3.33741 0.412598 3.6375 0.412598 4.00757V23.1074C0.412598 23.4775 0.71268 23.7775 1.08275 23.7775H20.1826C20.5527 23.7775 20.8527 23.4775 20.8527 23.1074V9.41616C20.8527 9.3744 20.8483 9.33373 20.841 9.29406L23.0667 7.06834C23.0712 7.06394 23.0757 7.05957 23.08 7.05509C23.0801 7.05505 23.0803 7.05494 23.0804 7.05482L23.124 7.01113C23.1446 6.99051 23.1635 6.96903 23.1808 6.94651C23.7902 6.26292 23.94 5.38712 23.6135 4.40962ZM9.39889 18.2844L4.6705 19.649L5.74417 14.6296L9.39889 18.2844ZM10.6248 17.6147L6.30436 13.2942L16.3845 3.21397L20.705 7.53447L10.6248 17.6147ZM16.711 19.9331H8.51997L10.7185 19.2986C10.8273 19.2671 10.9264 19.2086 11.0066 19.1286L19.5124 10.6228V22.4372H1.75291V4.67776H13.0253L4.86729 12.8358C4.77587 12.9272 4.71283 13.0431 4.68579 13.1695L3.12574 20.463C3.07642 20.6934 3.15181 20.9327 3.32416 21.0934C3.44993 21.2106 3.61378 21.2734 3.78122 21.2734C3.81702 21.2734 16.711 21.2734 16.711 21.2734V19.9331ZM22.1589 6.07806C22.1516 6.08586 22.1445 6.09385 22.1376 6.10196L22.1328 6.10672C22.1306 6.10899 22.1282 6.11131 22.1259 6.11359L21.6528 6.5866L17.3323 2.26617L17.8163 1.78219C17.8247 1.77508 17.833 1.76778 17.841 1.76014C18.0463 1.56836 18.27 1.47902 18.5449 1.47902C19.2001 1.47902 20.098 2.00097 21.008 2.91118C21.5064 3.40953 23.0626 5.11091 22.1589 6.07806Z" fill="white"/>
</g>
<defs>
<clipPath id="clip0_195_185">
<rect width="23.6389" height="23.6389" fill="white" transform="translate(0.277832 0.138672)"/>
</clipPath>
</defs>
</svg>
