<svg width="39" height="39" viewBox="0 0 39 39" fill="none" xmlns="http://www.w3.org/2000/svg">
<path fill-rule="evenodd" clip-rule="evenodd" d="M9.34375 34.125C8.58954 34.125 7.86622 33.8254 7.33292 33.2921C6.79961 32.7588 6.5 32.0355 6.5 31.2812C6.5 30.527 6.79961 29.8037 7.33292 29.2704C7.86622 28.7371 8.58954 28.4375 9.34375 28.4375C10.098 28.4375 10.8213 28.7371 11.3546 29.2704C11.8879 29.8037 12.1875 30.527 12.1875 31.2812C12.1875 32.0355 11.8879 32.7588 11.3546 33.2921C10.8213 33.8254 10.098 34.125 9.34375 34.125ZM4.0625 31.2812C4.0625 32.6819 4.61892 34.0252 5.60934 35.0157C6.59977 36.0061 7.94308 36.5625 9.34375 36.5625C10.7444 36.5625 12.0877 36.0061 13.0782 35.0157C14.0686 34.0252 14.625 32.6819 14.625 31.2812C14.625 29.8806 14.0686 28.5373 13.0782 27.5468C12.0877 26.5564 10.7444 26 9.34375 26C7.94308 26 6.59977 26.5564 5.60934 27.5468C4.61892 28.5373 4.0625 29.8806 4.0625 31.2812ZM9.34375 10.5625C8.9703 10.5625 8.60051 10.4889 8.25549 10.346C7.91047 10.2031 7.59698 9.99365 7.33292 9.72958C7.06885 9.46552 6.85938 9.15203 6.71647 8.80701C6.57356 8.46199 6.5 8.0922 6.5 7.71875C6.5 7.3453 6.57356 6.97551 6.71647 6.63049C6.85938 6.28547 7.06885 5.97198 7.33292 5.70792C7.59698 5.44385 7.91047 5.23438 8.25549 5.09147C8.60051 4.94856 8.9703 4.875 9.34375 4.875C10.098 4.875 10.8213 5.17461 11.3546 5.70792C11.8879 6.24122 12.1875 6.96454 12.1875 7.71875C12.1875 8.47296 11.8879 9.19628 11.3546 9.72958C10.8213 10.2629 10.098 10.5625 9.34375 10.5625ZM4.0625 7.71875C4.0625 9.11942 4.61892 10.4627 5.60934 11.4532C6.59977 12.4436 7.94308 13 9.34375 13C10.7444 13 12.0877 12.4436 13.0782 11.4532C14.0686 10.4627 14.625 9.11942 14.625 7.71875C14.625 6.31808 14.0686 4.97477 13.0782 3.98434C12.0877 2.99392 10.7444 2.4375 9.34375 2.4375C7.94308 2.4375 6.59977 2.99392 5.60934 3.98434C4.61892 4.97477 4.0625 6.31808 4.0625 7.71875ZM29.6562 10.5625C29.2828 10.5625 28.913 10.4889 28.568 10.346C28.223 10.2031 27.9095 9.99365 27.6454 9.72958C27.3813 9.46552 27.1719 9.15203 27.029 8.80701C26.8861 8.46199 26.8125 8.0922 26.8125 7.71875C26.8125 7.3453 26.8861 6.97551 27.029 6.63049C27.1719 6.28547 27.3813 5.97198 27.6454 5.70792C27.9095 5.44385 28.223 5.23438 28.568 5.09147C28.913 4.94856 29.2828 4.875 29.6562 4.875C30.4105 4.875 31.1338 5.17461 31.6671 5.70792C32.2004 6.24122 32.5 6.96454 32.5 7.71875C32.5 8.47296 32.2004 9.19628 31.6671 9.72958C31.1338 10.2629 30.4105 10.5625 29.6562 10.5625ZM24.375 7.71875C24.375 9.11942 24.9314 10.4627 25.9218 11.4532C26.9123 12.4436 28.2556 13 29.6562 13C31.0569 13 32.4002 12.4436 33.3907 11.4532C34.3811 10.4627 34.9375 9.11942 34.9375 7.71875C34.9375 6.31808 34.3811 4.97477 33.3907 3.98434C32.4002 2.99392 31.0569 2.4375 29.6562 2.4375C28.2556 2.4375 26.9123 2.99392 25.9218 3.98434C24.9314 4.97477 24.375 6.31808 24.375 7.71875Z" fill="#20295C"/>
<path fill-rule="evenodd" clip-rule="evenodd" d="M9.34375 27.2188C9.66698 27.2188 9.97698 27.0903 10.2055 26.8618C10.4341 26.6332 10.5625 26.3232 10.5625 26V13C10.5625 12.6768 10.4341 12.3668 10.2055 12.1382C9.97698 11.9097 9.66698 11.7813 9.34375 11.7812C9.02052 11.7813 8.71052 11.9097 8.48196 12.1382C8.2534 12.3668 8.125 12.6768 8.125 13V26C8.125 26.6728 8.671 27.2188 9.34375 27.2188Z" fill="#20295C"/>
<path fill-rule="evenodd" clip-rule="evenodd" d="M28.4375 14.2188V12.5938H30.875V14.2188C30.875 15.8349 30.233 17.3849 29.0902 18.5277C27.9474 19.6705 26.3974 20.3125 24.7813 20.3125H13.4063C12.652 20.3125 11.9287 20.6121 11.3954 21.1454C10.8621 21.6787 10.5625 22.402 10.5625 23.1562H8.125C8.125 21.7556 8.68142 20.4123 9.67184 19.4218C10.6623 18.4314 12.0056 17.875 13.4063 17.875H24.7813C25.7509 17.875 26.6809 17.4898 27.3666 16.8041C28.0523 16.1184 28.4375 15.1884 28.4375 14.2188Z" fill="#20295C"/>
</svg>
