<svg width="20" height="20" viewBox="0 0 20 20" fill="none" xmlns="http://www.w3.org/2000/svg">
<path d="M8.09162 9.40841C7.9347 9.25149 7.72187 9.16333 7.49995 9.16333C7.27803 9.16333 7.0652 9.25149 6.90828 9.40841C6.75136 9.56533 6.66321 9.77816 6.66321 10.0001C6.66321 10.222 6.75136 10.4348 6.90828 10.5917L9.40828 13.0917C9.48615 13.169 9.5785 13.2301 9.68003 13.2716C9.78156 13.313 9.89028 13.334 9.99995 13.3334C10.114 13.3298 10.2262 13.3028 10.3294 13.254C10.4326 13.2053 10.5247 13.1359 10.6 13.0501L16.4333 6.38341C16.568 6.21618 16.6329 6.00342 16.6146 5.78948C16.5962 5.57554 16.496 5.37694 16.3348 5.23508C16.1736 5.09323 15.9639 5.01907 15.7493 5.02808C15.5348 5.03708 15.332 5.12855 15.1833 5.28341L9.99995 11.2834L8.09162 9.40841Z" fill="white"/>
<path d="M17.5 9.16699C17.279 9.16699 17.067 9.25479 16.9108 9.41107C16.7545 9.56735 16.6667 9.77931 16.6667 10.0003C16.6667 11.7684 15.9643 13.4641 14.7141 14.7144C13.4638 15.9646 11.7681 16.667 10 16.667C8.68341 16.6664 7.39648 16.276 6.30148 15.5449C5.20648 14.8139 4.35244 13.775 3.84707 12.5593C3.34171 11.3436 3.20763 10.0054 3.46175 8.71357C3.71587 7.42173 4.34681 6.23406 5.27501 5.30033C5.89226 4.67481 6.62807 4.17869 7.43939 3.841C8.2507 3.50331 9.12122 3.33083 10 3.33366C10.5329 3.337 11.0638 3.39847 11.5833 3.51699C11.6921 3.55062 11.8065 3.56163 11.9197 3.54932C12.0328 3.53702 12.1422 3.50168 12.2412 3.44547C12.3401 3.38927 12.4265 3.31339 12.495 3.22251C12.5635 3.13164 12.6127 3.02769 12.6395 2.91709C12.6663 2.80648 12.6701 2.69156 12.6508 2.57941C12.6315 2.46726 12.5894 2.36025 12.5272 2.26499C12.4649 2.16972 12.3838 2.08822 12.2888 2.0255C12.1939 1.96279 12.0871 1.92018 11.975 1.90033C11.3276 1.74803 10.6651 1.66975 10 1.66699C8.35362 1.67555 6.74666 2.17159 5.38192 3.09254C4.01718 4.01348 2.95582 5.31804 2.33177 6.8416C1.70773 8.36516 1.54897 10.0394 1.87554 11.6531C2.2021 13.2668 2.99935 14.7476 4.16667 15.9087C5.71392 17.4566 7.81138 18.3286 10 18.3337C12.2101 18.3337 14.3298 17.4557 15.8926 15.8929C17.4554 14.3301 18.3333 12.2105 18.3333 10.0003C18.3333 9.77931 18.2455 9.56735 18.0893 9.41107C17.933 9.25479 17.721 9.16699 17.5 9.16699Z" fill="white"/>
</svg>
