<svg width="20" height="20" viewBox="0 0 20 20" fill="none" xmlns="http://www.w3.org/2000/svg">
<g clip-path="url(#clip0_218_460)">
<path fill-rule="evenodd" clip-rule="evenodd" d="M10 20C12.6522 20 15.1957 18.9464 17.0711 17.0711C18.9464 15.1957 20 12.6522 20 10C20 7.34784 18.9464 4.8043 17.0711 2.92893C15.1957 1.05357 12.6522 0 10 0C7.34784 0 4.8043 1.05357 2.92893 2.92893C1.05357 4.8043 0 7.34784 0 10C0 12.6522 1.05357 15.1957 2.92893 17.0711C4.8043 18.9464 7.34784 20 10 20ZM5 8.33333C4.55797 8.33333 4.13405 8.50893 3.82149 8.82149C3.50893 9.13405 3.33333 9.55797 3.33333 10C3.33333 10.442 3.50893 10.8659 3.82149 11.1785C4.13405 11.4911 4.55797 11.6667 5 11.6667H15C15.442 11.6667 15.8659 11.4911 16.1785 11.1785C16.4911 10.8659 16.6667 10.442 16.6667 10C16.6667 9.55797 16.4911 9.13405 16.1785 8.82149C15.8659 8.50893 15.442 8.33333 15 8.33333H5Z" fill="#4F4F4F"/>
</g>
<defs>
<clipPath id="clip0_218_460">
<rect width="20" height="20" fill="white"/>
</clipPath>
</defs>
</svg>
