<svg width="26" height="26" viewBox="0 0 26 26" fill="none" xmlns="http://www.w3.org/2000/svg">
<path d="M9.17554 13.2381C8.85815 13.5555 8.85815 14.0696 9.17554 14.387L11.613 16.8245C11.7717 16.9832 11.9796 17.0625 12.1875 17.0625C12.3954 17.0625 12.6033 16.9832 12.762 16.8245L16.8245 12.762C17.1418 12.4446 17.1418 11.9304 16.8245 11.613C16.5071 11.2957 15.9929 11.2957 15.6755 11.613L12.1875 15.1011L10.3244 13.238C10.0071 12.9207 9.49292 12.9207 9.17554 13.2381Z" fill="#20295C"/>
<path d="M13 4.0625C13.4487 4.0625 13.8125 3.69873 13.8125 3.25C13.8125 2.80127 13.4487 2.4375 13 2.4375C12.5513 2.4375 12.1875 2.80127 12.1875 3.25C12.1875 3.69873 12.5513 4.0625 13 4.0625Z" fill="#20295C"/>
<path d="M21.125 1.625H15.7979C15.2341 0.658379 14.1975 0 13 0C11.8025 0 10.7659 0.658379 10.2021 1.625H4.875C3.53087 1.625 2.4375 2.71837 2.4375 4.0625V23.5625C2.4375 24.9066 3.53087 26 4.875 26H21.125C22.4691 26 23.5625 24.9066 23.5625 23.5625V4.0625C23.5625 2.71837 22.4691 1.625 21.125 1.625ZM11.375 3.25C11.375 2.35381 12.1038 1.625 13 1.625C13.8962 1.625 14.625 2.35381 14.625 3.25V6.5H11.375V3.25ZM14.625 8.125C15.5212 8.125 16.25 7.39619 16.25 6.5H18.6875V21.125H7.3125V6.5H9.75C9.75 7.39619 10.4788 8.125 11.375 8.125H14.625ZM21.9375 23.5625C21.9375 24.0104 21.5729 24.375 21.125 24.375H4.875C4.42711 24.375 4.0625 24.0104 4.0625 23.5625V4.0625C4.0625 3.61461 4.42711 3.25 4.875 3.25H9.75V4.875H6.5C6.0513 4.875 5.6875 5.2388 5.6875 5.6875V21.9375C5.6875 22.3862 6.0513 22.75 6.5 22.75H19.5C19.9487 22.75 20.3125 22.3862 20.3125 21.9375V5.6875C20.3125 5.2388 19.9487 4.875 19.5 4.875H16.25V3.25H21.125C21.5729 3.25 21.9375 3.61461 21.9375 4.0625V23.5625Z" fill="#20295C"/>
</svg>
