<svg width="29" height="29" viewBox="0 0 29 29" fill="none" xmlns="http://www.w3.org/2000/svg">
<path d="M14.5001 26.5832C7.82646 26.5832 2.41675 21.1735 2.41675 14.4998C2.41675 7.82621 7.82646 2.4165 14.5001 2.4165C21.1737 2.4165 26.5834 7.82621 26.5834 14.4998C26.5834 21.1735 21.1737 26.5832 14.5001 26.5832ZM14.5001 24.1665C17.0638 24.1665 19.5226 23.1481 21.3354 21.3352C23.1483 19.5224 24.1667 17.0636 24.1667 14.4998C24.1667 11.9361 23.1483 9.47732 21.3354 7.66447C19.5226 5.85162 17.0638 4.83317 14.5001 4.83317C11.9363 4.83317 9.47757 5.85162 7.66472 7.66447C5.85186 9.47732 4.83341 11.9361 4.83341 14.4998C4.83341 17.0636 5.85186 19.5224 7.66472 21.3352C9.47757 23.1481 11.9363 24.1665 14.5001 24.1665ZM13.2917 8.45817H15.7084V10.8748H13.2917V8.45817ZM13.2917 13.2915H15.7084V20.5415H13.2917V13.2915Z" fill="#20295C"/>
</svg>
