<svg width="17" height="17" viewBox="0 0 17 17" fill="none" xmlns="http://www.w3.org/2000/svg">
<path d="M2.72062 9.29688H11.9529C12.393 9.29688 12.7498 8.94009 12.7498 8.50001C12.7498 8.05992 12.393 7.70314 11.9529 7.70314H2.72062L3.75092 6.67284C4.06212 6.36163 4.06212 5.85711 3.75092 5.5459C3.43977 5.2347 2.93519 5.2347 2.62399 5.5459L0.233483 7.93646C0.214836 7.95511 0.197199 7.97466 0.180518 7.99506C0.173239 8.00393 0.166918 8.01333 0.160065 8.02242C0.151299 8.0341 0.142268 8.04553 0.13414 8.05769C0.126702 8.06879 0.120274 8.08032 0.113474 8.09169C0.10694 8.10263 0.100087 8.11331 0.0940838 8.12457C0.087815 8.13626 0.0825557 8.14827 0.0769245 8.16017C0.0713995 8.1718 0.0656089 8.18328 0.0606683 8.19518C0.0558871 8.20681 0.0519559 8.21866 0.0477591 8.23045C0.0431372 8.2432 0.0382497 8.25579 0.0343185 8.26881C0.0307592 8.2806 0.0281561 8.29255 0.0251811 8.30451C0.0218342 8.31774 0.0181155 8.33091 0.0154593 8.3444C0.0127499 8.35816 0.0111031 8.37208 0.00913744 8.38595C0.00743745 8.39779 0.00515309 8.40948 0.00398435 8.42149C0.00143437 8.4472 0.000106249 8.47307 5.31247e-05 8.49889C5.31247e-05 8.49926 0 8.49969 0 8.50006C0 8.50043 5.31247e-05 8.50086 5.31247e-05 8.50123C0.000106249 8.5271 0.00143437 8.55292 0.00398435 8.57868C0.00515309 8.59053 0.00738433 8.60206 0.00903119 8.6138C0.0110499 8.62782 0.0126968 8.64185 0.0154593 8.65577C0.0181155 8.66916 0.0217811 8.68212 0.025128 8.69524C0.0281561 8.7073 0.0308123 8.71946 0.0344248 8.73142C0.0383029 8.74422 0.0431372 8.7566 0.0475997 8.76914C0.0519028 8.78114 0.055834 8.7932 0.0607215 8.805C0.0655558 8.81668 0.0712402 8.82789 0.0766589 8.83931C0.0823963 8.85148 0.087815 8.86375 0.09419 8.8757C0.100034 8.88659 0.106674 8.89695 0.112996 8.90753C0.119955 8.91927 0.126596 8.93111 0.134246 8.94253C0.142002 8.95417 0.150662 8.96506 0.159002 8.97627C0.166227 8.98588 0.172921 8.99582 0.180624 9.00517C0.196508 9.02451 0.213349 9.04305 0.230933 9.06084C0.231783 9.06169 0.232473 9.06265 0.233323 9.0635L2.62393 11.4542C2.77959 11.6098 2.98348 11.6876 3.18743 11.6876C3.39132 11.6875 3.59532 11.6098 3.75087 11.4542C4.06207 11.143 4.06207 10.6385 3.75092 10.3273L2.72062 9.29688Z" fill="#20295C"/>
<path d="M16.2031 1.32812H6.10937C5.66929 1.32812 5.3125 1.68491 5.3125 2.12499V5.31247C5.3125 5.75256 5.66929 6.10934 6.10937 6.10934C6.54946 6.10934 6.90624 5.75256 6.90624 5.31247V2.92186H15.4062V14.0781H6.90624V11.6874C6.90624 11.2473 6.54946 10.8906 6.10937 10.8906C5.66929 10.8906 5.3125 11.2473 5.3125 11.6874V14.875C5.3125 15.3151 5.66929 15.6718 6.10937 15.6718H16.2031C16.6431 15.6718 16.9999 15.3151 16.9999 14.875V2.12499C16.9999 1.68491 16.6431 1.32812 16.2031 1.32812Z" fill="#20295C"/>
</svg>
