<svg width="48" height="45" viewBox="0 0 48 45" fill="none" xmlns="http://www.w3.org/2000/svg">
<path d="M15.8691 3.798C19.3159 3.798 22.1102 6.59231 22.1102 10.0391C22.1102 13.4859 19.3159 16.2803 15.8691 16.2803C12.4223 16.2803 9.62794 13.4859 9.62794 10.0391C9.62794 6.59231 12.4221 3.798 15.8691 3.798ZM5.81287 27.1896C5.81287 26.721 6.114 26.4032 6.59925 26.4032C7.0845 26.4032 7.38562 26.7043 7.38562 27.1896V44.6244H24.5361V27.1896C24.5361 26.721 24.8372 26.4032 25.3224 26.4032C25.791 26.4032 26.1088 26.7043 26.1088 27.1896V44.6244H31.5636V25.6168C31.5636 21.3167 28.0498 17.8196 23.7664 17.8196H22.1936L17.6091 24.9474L17.0569 19.6099L17.8099 17.8028H14.43L15.183 19.6099L14.5974 24.9808L10.0127 17.8196H8.17219C3.87206 17.8196 0.375 21.3334 0.375 25.6168V44.6246H5.82975V27.1897L5.81287 27.1896ZM45.75 15V1.5H43.125V15H42.1875V4.5H39.5625V15H38.625V9.5625H36V15H35.0625V12.1875H32.4375V15H30.75V0.375H29.8125V16.125H47.625V15.0221V15H45.75Z" fill="white"/>
</svg>
