<svg width="33" height="47" viewBox="0 0 33 47" fill="none" xmlns="http://www.w3.org/2000/svg">
<path d="M31.982 0C32.0333 0.0559746 32.0846 0.111839 32.1385 0.174954V0H31.982ZM31.1471 1.19824V1.36853C31.163 1.38726 31.1797 1.40539 31.1955 1.42412C31.2058 1.38335 31.2202 1.34581 31.2323 1.30632C31.2051 1.27247 31.1729 1.22945 31.1471 1.19824ZM16.4026 3.63399C12.7576 3.63399 9.80278 6.60039 9.80278 10.2597C9.80278 13.919 12.7578 16.8858 16.4026 16.8858C20.0475 16.8858 23.0021 13.919 23.0021 10.2597C23.0021 6.60039 20.0475 3.63399 16.4026 3.63399ZM8.26348 18.5198C3.71633 18.5198 0.0185852 22.2504 0.0185852 26.7979V46.9774H5.78664V28.4677H5.76883C5.76883 27.9703 6.08712 27.6326 6.60025 27.6326C7.11338 27.6326 7.43167 27.9525 7.43167 28.4677V46.977H25.5672V28.4677C25.5672 27.9703 25.8859 27.6326 26.3991 27.6326C26.8945 27.6326 27.2305 27.9525 27.2305 28.4677V46.977H32.9985V26.7979C32.9985 22.2327 29.2831 18.5198 24.7536 18.5198H23.0904H10.2098H8.26348ZM20.262 25.8764H23.1036V26.4239H20.262V25.8764ZM23.1036 26.9682L23.116 28.7857C21.5009 30.1591 20.2949 28.7857 20.2949 28.7857L20.2685 26.9701L23.1036 26.9682ZM1.03627 31.0909H4.81V45.9872H1.03627V31.0909ZM28.2698 31.1764H32.0436V46.0731H28.2698V31.1764Z" fill="white"/>
</svg>
