<svg width="51" height="51" viewBox="0 0 51 51" fill="none" xmlns="http://www.w3.org/2000/svg">
<path d="M25.5 46.75C13.7636 46.75 4.25 37.2364 4.25 25.5C4.25 13.7636 13.7636 4.25 25.5 4.25C37.2364 4.25 46.75 13.7636 46.75 25.5C46.75 37.2364 37.2364 46.75 25.5 46.75ZM25.5 42.5C30.0087 42.5 34.3327 40.7089 37.5208 37.5208C40.7089 34.3327 42.5 30.0087 42.5 25.5C42.5 20.9913 40.7089 16.6673 37.5208 13.4792C34.3327 10.2911 30.0087 8.5 25.5 8.5C20.9913 8.5 16.6673 10.2911 13.4792 13.4792C10.2911 16.6673 8.5 20.9913 8.5 25.5C8.5 30.0087 10.2911 34.3327 13.4792 37.5208C16.6673 40.7089 20.9913 42.5 25.5 42.5ZM23.375 14.875H27.625V19.125H23.375V14.875ZM23.375 23.375H27.625V36.125H23.375V23.375Z" fill="white"/>
</svg>
