<svg width="25" height="21" viewBox="0 0 25 21" fill="none" xmlns="http://www.w3.org/2000/svg">
<g clip-path="url(#clip0_216_280)">
<path d="M4.55462 11.4844H17.5184C18.1364 11.4844 18.6374 11.0436 18.6374 10.5C18.6374 9.95638 18.1364 9.51564 17.5184 9.51564H4.55462L6.00135 8.24292C6.43834 7.85849 6.43834 7.23525 6.00135 6.85082C5.56444 6.46639 4.85592 6.46639 4.41893 6.85082L1.06223 9.80386C1.03604 9.8269 1.01128 9.85105 0.987855 9.87625C0.977635 9.88721 0.968758 9.89882 0.959135 9.91004C0.946826 9.92448 0.934145 9.93859 0.922732 9.95362C0.912288 9.96733 0.903262 9.98157 0.893714 9.99562C0.884538 10.0091 0.874915 10.0223 0.866486 10.0362C0.857683 10.0507 0.850298 10.0655 0.842391 10.0802C0.834633 10.0946 0.826502 10.1088 0.819564 10.1235C0.812851 10.1378 0.807331 10.1525 0.801437 10.167C0.794947 10.1828 0.788085 10.1983 0.782564 10.2144C0.777566 10.229 0.773911 10.2437 0.769734 10.2585C0.765034 10.2749 0.759812 10.2911 0.756083 10.3078C0.752278 10.3248 0.749966 10.342 0.747206 10.3591C0.744819 10.3737 0.741611 10.3882 0.73997 10.403C0.736389 10.4348 0.734524 10.4667 0.73445 10.4986C0.73445 10.4991 0.734375 10.4996 0.734375 10.5001C0.734375 10.5005 0.73445 10.5011 0.73445 10.5015C0.734524 10.5335 0.736389 10.5654 0.73997 10.5972C0.741611 10.6118 0.744744 10.6261 0.747056 10.6406C0.749891 10.6579 0.752204 10.6752 0.756083 10.6924C0.759812 10.709 0.76496 10.725 0.769659 10.7412C0.773911 10.7561 0.777641 10.7711 0.782714 10.7859C0.788159 10.8017 0.794948 10.817 0.801214 10.8325C0.807256 10.8473 0.812776 10.8622 0.819639 10.8768C0.826427 10.8912 0.834409 10.905 0.842018 10.9192C0.850074 10.9342 0.857683 10.9493 0.866635 10.9641C0.874841 10.9776 0.884165 10.9904 0.893042 11.0034C0.902814 11.0179 0.912139 11.0326 0.922881 11.0467C0.933772 11.061 0.945931 11.0745 0.957643 11.0883C0.967788 11.1002 0.977187 11.1125 0.988004 11.124C1.01031 11.1479 1.03396 11.1708 1.05865 11.1928C1.05984 11.1939 1.06081 11.195 1.062 11.1961L4.41885 14.1493C4.63742 14.3415 4.92372 14.4376 5.2101 14.4376C5.4964 14.4376 5.78285 14.3415 6.00127 14.1493C6.43826 13.7649 6.43826 13.1417 6.00135 12.7572L4.55462 11.4844Z" fill="white"/>
<path d="M23.4867 1.64062H9.31329C8.69533 1.64062 8.19434 2.08136 8.19434 2.62499V6.56247C8.19434 7.1061 8.69533 7.54684 9.31329 7.54684C9.93125 7.54684 10.4322 7.1061 10.4322 6.56247V3.60936H22.3677V17.3906H10.4322V14.4374C10.4322 13.8938 9.93125 13.4531 9.31329 13.4531C8.69533 13.4531 8.19434 13.8938 8.19434 14.4374V18.375C8.19434 18.9186 8.69533 19.3593 9.31329 19.3593H23.4867C24.1046 19.3593 24.6056 18.9186 24.6056 18.375V2.62499C24.6056 2.08136 24.1046 1.64062 23.4867 1.64062Z" fill="white"/>
</g>
<defs>
<clipPath id="clip0_216_280">
<rect width="23.8711" height="21" fill="white" transform="translate(0.734375)"/>
</clipPath>
</defs>
</svg>
