<svg width="23" height="23" viewBox="0 0 23 23" fill="none" xmlns="http://www.w3.org/2000/svg">
<g clip-path="url(#clip0_203_639)">
<path d="M11.4999 8.05469C9.60017 8.05469 8.05469 9.60025 8.05469 11.5C8.05469 13.3997 9.60017 14.9452 11.4999 14.9452C13.3997 14.9452 14.9452 13.3997 14.9452 11.5C14.9452 9.60025 13.3997 8.05469 11.4999 8.05469ZM11.4999 13.6692C10.3039 13.6692 9.33071 12.6961 9.33071 11.5C9.33071 10.3038 10.3038 9.33071 11.4999 9.33071C12.6961 9.33071 13.6692 10.3038 13.6692 11.5C13.6692 12.6961 12.696 13.6692 11.4999 13.6692Z" fill="white"/>
<path d="M22.7894 14.051L20.8384 12.2896V10.7102L22.7893 8.94901C22.9897 8.76807 23.0546 8.4806 22.9512 8.23122L21.9085 5.71396C21.8052 5.46466 21.5569 5.3074 21.2866 5.32096L18.6616 5.455L17.5449 4.33831L17.6789 1.71338C17.6927 1.44377 17.5353 1.19462 17.2859 1.09139L14.7686 0.0486508C14.5193 -0.0548105 14.2318 0.0102552 14.0509 0.210434L12.2895 2.16148H10.7103L8.94896 0.210434C8.76801 0.0101785 8.48054 -0.0545806 8.23124 0.0486508L5.71399 1.09131C5.46453 1.19462 5.30719 1.44377 5.32099 1.71331L5.4551 4.33824L4.33833 5.45493L1.71333 5.32089C1.44463 5.30648 1.19464 5.46451 1.09141 5.71389L0.0485962 8.23114C-0.0547119 8.4806 0.0101239 8.76799 0.210456 8.94893L2.16143 10.7102V12.2895L0.210609 14.0509C0.0102771 14.2318 -0.0546353 14.5193 0.0487494 14.7687L1.09141 17.2859C1.19472 17.5354 1.44418 17.6937 1.71333 17.6789L4.33833 17.5449L5.4551 18.6616L5.32099 21.2865C5.30719 21.5561 5.46461 21.8053 5.71399 21.9085L8.23124 22.9512C8.4807 23.0549 8.76809 22.9897 8.94896 22.7895L10.7104 20.8384H12.2896L14.0511 22.7895C14.1747 22.9263 14.3479 22.9999 14.5248 22.9999C14.6069 22.9999 14.6898 22.984 14.7688 22.9513L17.286 21.9086C17.5355 21.8053 17.6928 21.5561 17.679 21.2866L17.545 18.6617L18.6617 17.545L21.2867 17.679C21.5554 17.6926 21.8054 17.5354 21.9086 17.286L22.9513 14.7687C23.0546 14.5193 22.9897 14.2319 22.7894 14.051ZM20.902 16.3817L18.4435 16.2561C18.2633 16.2463 18.0874 16.3146 17.9598 16.4421L16.4421 17.9599C16.3144 18.0876 16.2469 18.2632 16.256 18.4435L16.3815 20.902L14.6963 21.6001L13.0466 19.7728C12.9257 19.6389 12.7536 19.5624 12.5731 19.5624H10.4268C10.2463 19.5624 10.0742 19.6389 9.95322 19.7728L8.30359 21.6001L6.61832 20.902L6.74393 18.4435C6.75312 18.2632 6.68545 18.0875 6.55777 17.9599L5.04011 16.4421C4.91251 16.3145 4.73701 16.2467 4.55645 16.2561L2.09797 16.3817L1.39988 14.6964L3.22708 13.0468C3.36105 12.9257 3.43753 12.7537 3.43753 12.5732V10.4267C3.43753 10.2463 3.36105 10.0741 3.22708 9.9532L1.39988 8.30356L2.09797 6.61829L4.55645 6.7439C4.73685 6.75341 4.91251 6.68543 5.04011 6.55783L6.55777 5.04016C6.68545 4.91248 6.75312 4.73683 6.74393 4.55635L6.61832 2.09788L8.30359 1.39978L9.95322 3.22698C10.0742 3.36087 10.2463 3.43743 10.4268 3.43743H12.5731C12.7536 3.43743 12.9257 3.36095 13.0466 3.22698L14.6963 1.39978L16.3815 2.09788L16.256 4.55635C16.2468 4.73668 16.3143 4.91233 16.4421 5.04016L17.9598 6.55783C18.0875 6.68543 18.2632 6.75433 18.4435 6.7439L20.902 6.61829L21.6001 8.30356L19.7728 9.9532C19.6388 10.0743 19.5623 10.2463 19.5623 10.4267V12.5732C19.5623 12.7537 19.6388 12.9258 19.7728 13.0468L21.6001 14.6964L20.902 16.3817Z" fill="white"/>
<path d="M11.5 5.46875C8.17438 5.46875 5.46875 8.17445 5.46875 11.5C5.46875 14.8256 8.17438 17.5313 11.5 17.5313C14.8256 17.5313 17.5313 14.8256 17.5313 11.5C17.5312 8.17438 14.8256 5.46875 11.5 5.46875ZM11.5 16.2552C8.87792 16.2552 6.74477 14.1221 6.74477 11.5C6.74477 8.87791 8.87792 6.74477 11.5 6.74477C14.1221 6.74477 16.2553 8.87791 16.2553 11.5C16.2553 14.1221 14.122 16.2552 11.5 16.2552Z" fill="white"/>
</g>
<defs>
<clipPath id="clip0_203_639">
<rect width="23" height="23" fill="white"/>
</clipPath>
</defs>
</svg>
