<svg width="24" height="24" viewBox="0 0 24 24" fill="none" xmlns="http://www.w3.org/2000/svg">
<path fill-rule="evenodd" clip-rule="evenodd" d="M5.75 21C5.28587 21 4.84075 20.8156 4.51256 20.4874C4.18437 20.1592 4 19.7141 4 19.25C4 18.7859 4.18437 18.3408 4.51256 18.0126C4.84075 17.6844 5.28587 17.5 5.75 17.5C6.21413 17.5 6.65925 17.6844 6.98744 18.0126C7.31563 18.3408 7.5 18.7859 7.5 19.25C7.5 19.7141 7.31563 20.1592 6.98744 20.4874C6.65925 20.8156 6.21413 21 5.75 21ZM2.5 19.25C2.5 20.112 2.84241 20.9386 3.4519 21.5481C4.0614 22.1576 4.88805 22.5 5.75 22.5C6.61195 22.5 7.4386 22.1576 8.0481 21.5481C8.65759 20.9386 9 20.112 9 19.25C9 18.388 8.65759 17.5614 8.0481 16.9519C7.4386 16.3424 6.61195 16 5.75 16C4.88805 16 4.0614 16.3424 3.4519 16.9519C2.84241 17.5614 2.5 18.388 2.5 19.25ZM5.75 6.5C5.52019 6.5 5.29262 6.45474 5.0803 6.36679C4.86798 6.27884 4.67507 6.14994 4.51256 5.98744C4.35006 5.82493 4.22116 5.63202 4.13321 5.4197C4.04526 5.20738 4 4.97981 4 4.75C4 4.52019 4.04526 4.29262 4.13321 4.0803C4.22116 3.86798 4.35006 3.67507 4.51256 3.51256C4.67507 3.35006 4.86798 3.22116 5.0803 3.13321C5.29262 3.04527 5.52019 3 5.75 3C6.21413 3 6.65925 3.18437 6.98744 3.51256C7.31563 3.84075 7.5 4.28587 7.5 4.75C7.5 5.21413 7.31563 5.65925 6.98744 5.98744C6.65925 6.31563 6.21413 6.5 5.75 6.5ZM2.5 4.75C2.5 5.61195 2.84241 6.4386 3.4519 7.0481C4.0614 7.65759 4.88805 8 5.75 8C6.61195 8 7.4386 7.65759 8.0481 7.0481C8.65759 6.4386 9 5.61195 9 4.75C9 3.88805 8.65759 3.0614 8.0481 2.4519C7.4386 1.84241 6.61195 1.5 5.75 1.5C4.88805 1.5 4.0614 1.84241 3.4519 2.4519C2.84241 3.0614 2.5 3.88805 2.5 4.75ZM18.25 6.5C18.0202 6.5 17.7926 6.45474 17.5803 6.36679C17.368 6.27884 17.1751 6.14994 17.0126 5.98744C16.8501 5.82493 16.7212 5.63202 16.6332 5.4197C16.5453 5.20738 16.5 4.97981 16.5 4.75C16.5 4.52019 16.5453 4.29262 16.6332 4.0803C16.7212 3.86798 16.8501 3.67507 17.0126 3.51256C17.1751 3.35006 17.368 3.22116 17.5803 3.13321C17.7926 3.04527 18.0202 3 18.25 3C18.7141 3 19.1592 3.18437 19.4874 3.51256C19.8156 3.84075 20 4.28587 20 4.75C20 5.21413 19.8156 5.65925 19.4874 5.98744C19.1592 6.31563 18.7141 6.5 18.25 6.5ZM15 4.75C15 5.61195 15.3424 6.4386 15.9519 7.0481C16.5614 7.65759 17.388 8 18.25 8C19.112 8 19.9386 7.65759 20.5481 7.0481C21.1576 6.4386 21.5 5.61195 21.5 4.75C21.5 3.88805 21.1576 3.0614 20.5481 2.4519C19.9386 1.84241 19.112 1.5 18.25 1.5C17.388 1.5 16.5614 1.84241 15.9519 2.4519C15.3424 3.0614 15 3.88805 15 4.75Z" fill="white"/>
<path fill-rule="evenodd" clip-rule="evenodd" d="M5.75 16.75C5.94891 16.75 6.13968 16.671 6.28033 16.5303C6.42098 16.3897 6.5 16.1989 6.5 16V8C6.5 7.80109 6.42098 7.61032 6.28033 7.46967C6.13968 7.32902 5.94891 7.25 5.75 7.25C5.55109 7.25 5.36032 7.32902 5.21967 7.46967C5.07902 7.61032 5 7.80109 5 8V16C5 16.414 5.336 16.75 5.75 16.75Z" fill="white"/>
<path fill-rule="evenodd" clip-rule="evenodd" d="M17.5 8.75V7.75H19V8.75C19 9.74456 18.6049 10.6984 17.9017 11.4017C17.1984 12.1049 16.2446 12.5 15.25 12.5H8.25C7.78587 12.5 7.34075 12.6844 7.01256 13.0126C6.68437 13.3408 6.5 13.7859 6.5 14.25H5C5 13.388 5.34241 12.5614 5.9519 11.9519C6.5614 11.3424 7.38805 11 8.25 11H15.25C15.8467 11 16.419 10.7629 16.841 10.341C17.2629 9.91903 17.5 9.34674 17.5 8.75Z" fill="white"/>
</svg>
