<svg width="18" height="18" viewBox="0 0 18 18" fill="none" xmlns="http://www.w3.org/2000/svg">
<g clip-path="url(#clip0_294_127)">
<path d="M17.1818 6.9491e-05C16.73 6.9491e-05 16.3636 0.366396 16.3636 0.818249V7.02485L9.57853 0.239687C9.34453 0.00568767 8.99255 -0.0643485 8.68688 0.0623057C8.38116 0.18896 8.18179 0.487322 8.18179 0.818194V7.02479L1.39674 0.239687C1.16274 0.00568767 0.810761 -0.0643485 0.505089 0.0623057C0.199363 0.18896 0 0.487322 0 0.818194V17.1818C0 17.5127 0.199363 17.8111 0.505089 17.9377C0.606325 17.9796 0.712634 18 0.818016 18C1.03096 18 1.24025 17.9169 1.39674 17.7603L8.18185 10.9753V17.1818C8.18185 17.5128 8.38121 17.8111 8.68694 17.9377C8.78817 17.9797 8.89448 18.0001 8.99986 18.0001C9.21281 18.0001 9.4221 17.9169 9.57859 17.7604L16.3637 10.9754V17.1819C16.3637 17.6337 16.73 18.0001 17.1819 18.0001C17.6337 18.0001 18.0001 17.6337 18.0001 17.1819V0.818303C18 0.366341 17.6337 6.9491e-05 17.1818 6.9491e-05ZM1.63641 15.2066V2.7935L7.84296 9.0001L1.63641 15.2066ZM9.81821 15.2066V2.7935L16.0247 9.0001L9.81821 15.2066Z" fill="white"/>
</g>
<defs>
<clipPath id="clip0_294_127">
<rect width="18" height="18" fill="white"/>
</clipPath>
</defs>
</svg>
