<svg width="29" height="32" viewBox="0 0 29 32" fill="none" xmlns="http://www.w3.org/2000/svg">
<path d="M6.66936 31.6236C7.59555 32.0508 19.2829 32.3451 18.5149 31.174C18.5911 29.7411 2.91697 29.9971 6.66936 31.6236Z" fill="#92E7D2"/>
<path d="M13.0034 23.7316L15.9466 23.5525C15.9466 23.5525 19.9002 22.4776 21.5695 20.507C23.2388 18.5364 23.2828 18.3124 23.2828 18.3124C23.2828 18.3124 24.4249 15.9835 25.0839 15.4461C25.7428 14.9086 27.0167 11.5944 26.7532 10.6539C26.4896 9.71339 26.3578 7.11576 24.2053 5.45865C22.0528 3.80154 18.7142 1.2487 18.7142 1.2487C18.7142 1.2487 13.882 -1.30414 9.88443 0.890408C5.8869 3.08496 3.42688 5.18993 3.42688 5.18993C3.42688 5.18993 -1.31745 9.93732 0.659351 13.7442C2.63615 17.5511 4.01523 18.4649 4.01523 18.4649C4.01523 18.4649 6.9026 20.0198 7.69331 21.1394C8.48404 22.2591 10.0162 23.6868 13.0034 23.7316V23.7316Z" fill="#AAE5B4"/>
<path d="M10.999 30.6177C10.999 30.6177 11.8363 17.6472 12.0537 16.6338C11.2772 15.7788 8.95631 13.1621 8.95631 13.1621L7.29799 11.4826C7.29799 11.4826 5.17842 9.5008 4.71716 9.24328C6.09038 9.90856 7.28108 10.8671 8.49505 11.7849C7.6363 9.5475 7.25526 7.78277 7.63844 5.42521C7.75573 6.80412 8.14269 10.9531 9.59328 12.7031C10.5817 13.7555 12.2071 15.1439 12.2071 15.1439C12.2071 15.1439 12.8221 7.21668 12.7122 6.94796C12.6024 6.67923 11.1088 5.02213 8.67077 4.35033C10.2469 4.33833 11.3431 5.11168 12.6827 5.90596C12.6827 5.90596 12.7682 1.97901 12.6983 1.75732C12.9778 2.24028 13.0633 3.02409 13.0633 3.02409C13.0633 3.02409 14.0521 12.3895 13.6347 13.5316C14.6231 11.6058 17.4897 6.18307 21.7142 5.01131C19.8194 6.43642 19.4466 6.27808 17.4275 8.77993C18.3905 8.43157 19.4311 8.30489 22.2422 9.09662C20.3862 8.76409 17.2808 9.00815 16.567 10.0047C15.8532 11.0012 13.6347 14.293 13.503 15.5022C13.3712 16.7115 13.3492 18.0551 13.3492 18.0551C13.3492 18.0551 15.6182 16.7605 16.3015 16.6022C16.9849 16.4438 18.6545 13.3878 18.3594 12.691C18.4837 13.0869 18.8409 14.3537 17.4897 16.2538C18.7322 16.0321 20.9376 15.7471 22.6305 16.4122C21.0618 16.3647 18.1109 16.3963 16.3093 17.3464C14.5077 18.2965 13.2807 19.199 13.2807 19.199C13.2807 19.199 12.706 29.4281 13.2341 30.5682C10.3467 30.6494 10.999 30.6177 10.999 30.6177V30.6177Z" fill="#C0A09B"/>
<path d="M16.2734 17.5098H18.5283C18.5487 17.5098 18.5689 17.5154 18.5877 17.5265C18.6065 17.5375 18.6236 17.5537 18.6381 17.5741C18.6525 17.5945 18.6639 17.6187 18.6717 17.6454C18.6795 17.672 18.6835 17.7006 18.6835 17.7294V19.1511C18.6835 19.1799 18.6795 19.2085 18.6717 19.2351C18.6639 19.2618 18.6525 19.286 18.6381 19.3064C18.6236 19.3268 18.6065 19.343 18.5877 19.354C18.5689 19.3651 18.5487 19.3707 18.5283 19.3707H16.2734C16.2531 19.3707 16.2329 19.3651 16.2141 19.354C16.1952 19.343 16.1781 19.3268 16.1637 19.3064C16.1493 19.286 16.1379 19.2618 16.1301 19.2351C16.1223 19.2085 16.1183 19.1799 16.1183 19.1511V17.7294C16.1183 17.7006 16.1223 17.672 16.1301 17.6454C16.1379 17.6187 16.1493 17.5945 16.1637 17.5741C16.1781 17.5537 16.1952 17.5375 16.2141 17.5265C16.2329 17.5154 16.2531 17.5098 16.2734 17.5098Z" fill="white" stroke="#D9D9D9" stroke-width="0.565283"/>
<path d="M18.4517 17.8398H16.3573V18.0849H18.4517V17.8398Z" fill="#D9D9D9"/>
<path d="M18.4468 18.2974H16.3524V18.5424H18.4468V18.2974Z" fill="#D9D9D9"/>
<path d="M18.4419 18.7549H16.3475V19H18.4419V18.7549Z" fill="#D9D9D9"/>
<path d="M17.1517 16.9269C17.3847 17.4731 17.3614 17.5048 17.3614 17.5048C17.3614 17.5048 17.4624 17.1644 17.3692 16.9269C17.276 16.6893 17.1517 16.9269 17.1517 16.9269H17.1517Z" fill="#C0A09B"/>
<path d="M7.30933 14.3672H9.56423C9.5846 14.3672 9.60478 14.3729 9.62361 14.3839C9.64243 14.3949 9.65953 14.4111 9.67394 14.4315C9.68835 14.4519 9.69977 14.4761 9.70757 14.5028C9.71537 14.5294 9.71938 14.558 9.71938 14.5868V16.0085C9.71938 16.0373 9.71537 16.0659 9.70757 16.0926C9.69977 16.1192 9.68835 16.1434 9.67394 16.1638C9.65953 16.1842 9.64243 16.2004 9.62361 16.2114C9.60478 16.2225 9.5846 16.2282 9.56423 16.2282H7.30933C7.28895 16.2282 7.26877 16.2225 7.24995 16.2114C7.23113 16.2004 7.21402 16.1842 7.19961 16.1638C7.18521 16.1434 7.17378 16.1192 7.16599 16.0926C7.15819 16.0659 7.15417 16.0373 7.15417 16.0085V14.5868C7.15417 14.558 7.15819 14.5294 7.16599 14.5028C7.17378 14.4761 7.18521 14.4519 7.19961 14.4315C7.21402 14.4111 7.23113 14.3949 7.24995 14.3839C7.26877 14.3729 7.28895 14.3672 7.30933 14.3672Z" fill="white" stroke="#D9D9D9" stroke-width="0.565283"/>
<path d="M9.48756 14.6973H7.39319V14.9423H9.48756V14.6973Z" fill="#D9D9D9"/>
<path d="M9.48267 15.1548H7.38831V15.3999H9.48267V15.1548Z" fill="#D9D9D9"/>
<path d="M9.47779 15.6123H7.38342V15.8574H9.47779V15.6123Z" fill="#D9D9D9"/>
<path d="M17.0319 9.94434H19.2868C19.3071 9.94434 19.3273 9.95002 19.3461 9.96106C19.365 9.9721 19.3821 9.98827 19.3965 10.0087C19.4109 10.0291 19.4223 10.0533 19.4301 10.0799C19.4379 10.1066 19.4419 10.1352 19.4419 10.164V11.5856C19.4419 11.6145 19.4379 11.643 19.4301 11.6697C19.4223 11.6963 19.4109 11.7206 19.3965 11.741C19.3821 11.7614 19.365 11.7775 19.3461 11.7886C19.3273 11.7996 19.3071 11.8053 19.2868 11.8053H17.0319C17.0115 11.8053 16.9913 11.7996 16.9725 11.7886C16.9537 11.7775 16.9366 11.7614 16.9221 11.741C16.9077 11.7206 16.8963 11.6963 16.8885 11.6697C16.8807 11.643 16.8767 11.6145 16.8767 11.5856V10.164C16.8767 10.1352 16.8807 10.1066 16.8885 10.0799C16.8963 10.0533 16.9077 10.0291 16.9221 10.0087C16.9366 9.98827 16.9537 9.9721 16.9725 9.96106C16.9913 9.95002 17.0115 9.94434 17.0319 9.94434Z" fill="white" stroke="#D9D9D9" stroke-width="0.565283"/>
<path d="M19.2101 10.2744H17.1157V10.5195H19.2101V10.2744Z" fill="#D9D9D9"/>
<path d="M19.2052 10.7319H17.1108V10.977H19.2052V10.7319Z" fill="#D9D9D9"/>
<path d="M19.2003 11.1895H17.106V11.4345H19.2003V11.1895Z" fill="#D9D9D9"/>
<path d="M9.28174 6.10938H11.5366C11.557 6.10937 11.5772 6.11506 11.596 6.1261C11.6148 6.13714 11.6319 6.15331 11.6464 6.17371C11.6608 6.19411 11.6722 6.21833 11.68 6.24498C11.6878 6.27163 11.6918 6.30019 11.6918 6.32904V7.75068C11.6918 7.77953 11.6878 7.80809 11.68 7.83474C11.6722 7.86139 11.6608 7.88561 11.6464 7.906C11.6319 7.9264 11.6148 7.94259 11.596 7.95362C11.5772 7.96466 11.557 7.97034 11.5366 7.97034H9.28174C9.26136 7.97034 9.24118 7.96466 9.22236 7.95362C9.20354 7.94259 9.18643 7.9264 9.17203 7.906C9.15762 7.88561 9.14619 7.86139 9.1384 7.83474C9.1306 7.80809 9.12659 7.77953 9.12659 7.75068V6.32904C9.12659 6.30019 9.1306 6.27163 9.1384 6.24498C9.14619 6.21833 9.15762 6.19411 9.17203 6.17371C9.18643 6.15331 9.20354 6.13714 9.22236 6.1261C9.24118 6.11506 9.26136 6.10937 9.28174 6.10938Z" fill="white" stroke="#D9D9D9" stroke-width="0.565283"/>
<path d="M11.46 6.43945H9.3656V6.68453H11.46V6.43945Z" fill="#D9D9D9"/>
<path d="M11.4551 6.89697H9.36072V7.14205H11.4551V6.89697Z" fill="#D9D9D9"/>
<path d="M11.4502 7.35449H9.35583V7.59957H11.4502V7.35449Z" fill="#D9D9D9"/>
<path d="M9.0475 13.0215C9.0475 13.0215 8.31169 13.5253 8.38856 14.4435C8.60821 13.8948 8.92669 13.3126 9.13536 13.223C9.27812 13.1446 9.0475 13.0215 9.0475 13.0215V13.0215Z" fill="#C0A09B"/>
<path d="M17.7581 9.3221C17.7581 9.3221 18.1488 9.70003 18.1046 9.95849C18.2385 9.63448 18.0753 9.27807 17.9565 9.17983C17.8377 9.08159 17.7581 9.3221 17.7581 9.3221V9.3221Z" fill="#C0A09B"/>
<path d="M11.1809 5.16064C11.1809 5.16064 10.3067 5.34556 10.3834 6.1344C10.579 5.73228 10.4804 5.74069 11.1809 5.16064Z" fill="#C0A09B"/>
</svg>
