<svg width="15" height="15" viewBox="0 0 15 15" fill="none" xmlns="http://www.w3.org/2000/svg">
<path d="M12.0035 10.7222L9.61525 9.52825C9.39 9.4155 9.25 9.189 9.25 8.937V8.09175C9.30725 8.02175 9.3675 7.942 9.42975 7.854C9.7395 7.4165 9.98775 6.9295 10.1682 6.40425C10.521 6.2425 10.75 5.89375 10.75 5.5V4.5C10.75 4.25925 10.66 4.026 10.5 3.84375V2.514C10.514 2.3765 10.569 1.558 9.977 0.88275C9.4635 0.297 8.63025 0 7.5 0C6.36975 0 5.5365 0.297 5.023 0.8825C4.431 1.55775 4.486 2.3765 4.5 2.514V3.84375C4.34 4.026 4.25 4.25925 4.25 4.5V5.5C4.25 5.80425 4.38825 6.088 4.62425 6.27725C4.85325 7.184 5.3325 7.86725 5.5 8.0865V8.91375C5.5 9.15575 5.368 9.37775 5.15575 9.49375L2.9255 10.7102C2.20025 11.106 1.75 11.8645 1.75 12.6905V13.5C1.75 14.6865 5.51125 15 7.5 15C9.48875 15 13.25 14.6865 13.25 13.5V12.7393C13.25 11.8798 12.7722 11.1067 12.0035 10.7222Z" fill="#20295C"/>
</svg>
