<svg width="40" height="40" viewBox="0 0 40 40" fill="none" xmlns="http://www.w3.org/2000/svg">
<g clip-path="url(#clip0_256_185)">
<path d="M14.0476 31.3601L8.08005 34.6152C7.72986 34.8061 7.41514 35.0408 7.12231 35.2967C10.6016 38.2303 15.0929 40.0001 20.0001 40.0001C24.871 40.0001 29.3336 38.2567 32.8031 35.3631C32.4831 35.0929 32.1359 34.8499 31.751 34.6582L25.3608 31.4635C24.5351 31.0506 24.0136 30.2069 24.0136 29.2839V26.7767C24.1933 26.5722 24.3985 26.3095 24.6182 25.9993C25.4891 24.7691 26.148 23.4159 26.6046 21.9963C27.4242 21.7435 28.028 20.9865 28.028 20.0869V17.4106C28.028 16.822 27.7661 16.2959 27.3593 15.9276V12.059C27.3593 12.059 28.154 6.03857 20.0008 6.03857C11.8476 6.03857 12.6423 12.059 12.6423 12.059V15.9276C12.2348 16.2959 11.9736 16.822 11.9736 17.4106V20.0869C11.9736 20.7918 12.3442 21.4122 12.8989 21.7707C13.5676 24.6816 15.3185 26.7767 15.3185 26.7767V29.222C15.3178 30.1125 14.8302 30.9329 14.0476 31.3601Z" fill="#E7ECED"/>
<path d="M20.342 0.00297824C9.29819 -0.185701 0.191781 8.6143 0.00310228 19.6581C-0.104067 25.92 2.68687 31.5479 7.13065 35.2905C7.42121 35.0369 7.73291 34.8045 8.07933 34.6158L14.0469 31.3607C14.8295 30.9335 15.3171 30.1132 15.3171 29.2211V26.7758C15.3171 26.7758 13.5654 24.6807 12.8974 21.7698C12.3435 21.4113 11.9722 20.7917 11.9722 20.086V17.4098C11.9722 16.8211 12.234 16.2951 12.6408 15.9268V12.0581C12.6408 12.0581 11.8461 6.03769 19.9993 6.03769C28.1525 6.03769 27.3578 12.0581 27.3578 12.0581V15.9268C27.7654 16.2951 28.0265 16.8211 28.0265 17.4098V20.086C28.0265 20.9856 27.4227 21.7426 26.6031 21.9954C26.1465 23.4151 25.4876 24.7683 24.6167 25.9984C24.3971 26.3086 24.1918 26.5713 24.0121 26.7758V29.283C24.0121 30.206 24.5337 31.0505 25.3593 31.4626L31.7495 34.6573C32.1329 34.849 32.4793 35.0913 32.7986 35.3607C37.108 31.7668 39.8921 26.3932 39.9955 20.3418C40.1857 9.29807 31.3865 0.191657 20.342 0.00297824Z" fill="#22577A"/>
</g>
<defs>
<clipPath id="clip0_256_185">
<rect width="40" height="40" fill="white"/>
</clipPath>
</defs>
</svg>
